<mxfile host="app.diagrams.net" modified="2024-02-12T10:37:16.200Z" agent="Mozilla/5.0 (Windows NT 10.0; Win64; x64) AppleWebKit/537.36 (KHTML, like Gecko) Chrome/121.0.0.0 Safari/537.36" etag="QvEhRTO1oWVT6GTlJkcR" version="23.1.2" type="github" pages="4">
  <diagram name="ページ1" id="xsGwvkBTiWMWlQUuW-to">
    <mxGraphModel dx="1434" dy="772" grid="1" gridSize="10" guides="1" tooltips="1" connect="1" arrows="1" fold="1" page="1" pageScale="1" pageWidth="827" pageHeight="1169" math="0" shadow="0">
      <root>
        <mxCell id="0" />
        <mxCell id="1" parent="0" />
        <mxCell id="Y6hbfu5QWSVkYy7LjRkT-17" value="" style="whiteSpace=wrap;html=1;aspect=fixed;" parent="1" vertex="1">
          <mxGeometry x="130" y="330" width="460" height="460" as="geometry" />
        </mxCell>
        <mxCell id="Y6hbfu5QWSVkYy7LjRkT-29" value="" style="rounded=0;whiteSpace=wrap;html=1;" parent="1" vertex="1">
          <mxGeometry x="150" y="340" width="410" height="340" as="geometry" />
        </mxCell>
        <mxCell id="Y6hbfu5QWSVkYy7LjRkT-24" style="edgeStyle=orthogonalEdgeStyle;rounded=0;orthogonalLoop=1;jettySize=auto;html=1;" parent="1" source="Y6hbfu5QWSVkYy7LjRkT-3" target="Y6hbfu5QWSVkYy7LjRkT-23" edge="1">
          <mxGeometry relative="1" as="geometry" />
        </mxCell>
        <mxCell id="Y6hbfu5QWSVkYy7LjRkT-3" value="入力" style="rounded=1;whiteSpace=wrap;html=1;" parent="1" vertex="1">
          <mxGeometry x="294" y="360" width="120" height="60" as="geometry" />
        </mxCell>
        <mxCell id="Y6hbfu5QWSVkYy7LjRkT-13" style="edgeStyle=orthogonalEdgeStyle;rounded=0;orthogonalLoop=1;jettySize=auto;html=1;entryX=0.25;entryY=0;entryDx=0;entryDy=0;" parent="1" source="Y6hbfu5QWSVkYy7LjRkT-4" target="Y6hbfu5QWSVkYy7LjRkT-3" edge="1">
          <mxGeometry relative="1" as="geometry">
            <mxPoint x="130" y="390" as="targetPoint" />
            <Array as="points">
              <mxPoint x="120" y="290" />
              <mxPoint x="324" y="290" />
            </Array>
          </mxGeometry>
        </mxCell>
        <mxCell id="Y6hbfu5QWSVkYy7LjRkT-4" value="視覚" style="rounded=1;whiteSpace=wrap;html=1;" parent="1" vertex="1">
          <mxGeometry x="60" y="90" width="120" height="60" as="geometry" />
        </mxCell>
        <mxCell id="Y6hbfu5QWSVkYy7LjRkT-5" value="" style="endArrow=none;dashed=1;html=1;rounded=0;shape=link;" parent="1" edge="1">
          <mxGeometry width="50" height="50" relative="1" as="geometry">
            <mxPoint y="220" as="sourcePoint" />
            <mxPoint x="830" y="220" as="targetPoint" />
          </mxGeometry>
        </mxCell>
        <mxCell id="Y6hbfu5QWSVkYy7LjRkT-12" style="edgeStyle=orthogonalEdgeStyle;rounded=0;orthogonalLoop=1;jettySize=auto;html=1;entryX=1;entryY=0;entryDx=0;entryDy=0;" parent="1" source="Y6hbfu5QWSVkYy7LjRkT-7" target="Y6hbfu5QWSVkYy7LjRkT-3" edge="1">
          <mxGeometry relative="1" as="geometry">
            <Array as="points">
              <mxPoint x="550" y="120" />
              <mxPoint x="550" y="290" />
              <mxPoint x="414" y="290" />
            </Array>
          </mxGeometry>
        </mxCell>
        <mxCell id="Y6hbfu5QWSVkYy7LjRkT-7" value="内部欲求" style="rounded=1;whiteSpace=wrap;html=1;" parent="1" vertex="1">
          <mxGeometry x="570" y="90" width="120" height="60" as="geometry" />
        </mxCell>
        <mxCell id="Y6hbfu5QWSVkYy7LjRkT-10" style="edgeStyle=orthogonalEdgeStyle;rounded=0;orthogonalLoop=1;jettySize=auto;html=1;entryX=0.5;entryY=0;entryDx=0;entryDy=0;" parent="1" source="Y6hbfu5QWSVkYy7LjRkT-8" target="Y6hbfu5QWSVkYy7LjRkT-3" edge="1">
          <mxGeometry relative="1" as="geometry" />
        </mxCell>
        <mxCell id="Y6hbfu5QWSVkYy7LjRkT-8" value="皮膚感覚" style="rounded=1;whiteSpace=wrap;html=1;" parent="1" vertex="1">
          <mxGeometry x="230" y="90" width="120" height="60" as="geometry" />
        </mxCell>
        <mxCell id="Y6hbfu5QWSVkYy7LjRkT-11" style="edgeStyle=orthogonalEdgeStyle;rounded=0;orthogonalLoop=1;jettySize=auto;html=1;entryX=0.75;entryY=0;entryDx=0;entryDy=0;" parent="1" source="Y6hbfu5QWSVkYy7LjRkT-9" target="Y6hbfu5QWSVkYy7LjRkT-3" edge="1">
          <mxGeometry relative="1" as="geometry" />
        </mxCell>
        <mxCell id="Y6hbfu5QWSVkYy7LjRkT-9" value="音声" style="rounded=1;whiteSpace=wrap;html=1;" parent="1" vertex="1">
          <mxGeometry x="400" y="90" width="120" height="60" as="geometry" />
        </mxCell>
        <mxCell id="Y6hbfu5QWSVkYy7LjRkT-18" value="行動生成部" style="text;strokeColor=none;fillColor=none;spacingLeft=4;spacingRight=4;overflow=hidden;rotatable=0;points=[[0,0.5],[1,0.5]];portConstraint=eastwest;fontSize=12;whiteSpace=wrap;html=1;" parent="1" vertex="1">
          <mxGeometry x="130" y="300" width="80" height="30" as="geometry" />
        </mxCell>
        <mxCell id="-D9WMQLK6_W9tWc12pCn-23" style="edgeStyle=orthogonalEdgeStyle;rounded=0;orthogonalLoop=1;jettySize=auto;html=1;" edge="1" parent="1" source="Y6hbfu5QWSVkYy7LjRkT-23" target="-D9WMQLK6_W9tWc12pCn-2">
          <mxGeometry relative="1" as="geometry" />
        </mxCell>
        <mxCell id="-D9WMQLK6_W9tWc12pCn-24" style="edgeStyle=orthogonalEdgeStyle;rounded=0;orthogonalLoop=1;jettySize=auto;html=1;entryX=0.5;entryY=0;entryDx=0;entryDy=0;" edge="1" parent="1" source="Y6hbfu5QWSVkYy7LjRkT-23" target="-D9WMQLK6_W9tWc12pCn-22">
          <mxGeometry relative="1" as="geometry" />
        </mxCell>
        <mxCell id="-D9WMQLK6_W9tWc12pCn-25" style="edgeStyle=orthogonalEdgeStyle;rounded=0;orthogonalLoop=1;jettySize=auto;html=1;" edge="1" parent="1" source="Y6hbfu5QWSVkYy7LjRkT-23" target="-D9WMQLK6_W9tWc12pCn-1">
          <mxGeometry relative="1" as="geometry" />
        </mxCell>
        <mxCell id="Y6hbfu5QWSVkYy7LjRkT-23" value="行動生成" style="rounded=1;whiteSpace=wrap;html=1;" parent="1" vertex="1">
          <mxGeometry x="295" y="450" width="120" height="60" as="geometry" />
        </mxCell>
        <mxCell id="8ng4StidYEqLZICER2uD-2" style="edgeStyle=orthogonalEdgeStyle;rounded=0;orthogonalLoop=1;jettySize=auto;html=1;entryX=1;entryY=0.5;entryDx=0;entryDy=0;" edge="1" parent="1" source="Y6hbfu5QWSVkYy7LjRkT-26" target="Y6hbfu5QWSVkYy7LjRkT-7">
          <mxGeometry relative="1" as="geometry">
            <mxPoint x="750" y="122" as="targetPoint" />
            <Array as="points">
              <mxPoint x="750" y="730" />
              <mxPoint x="750" y="120" />
            </Array>
          </mxGeometry>
        </mxCell>
        <mxCell id="Y6hbfu5QWSVkYy7LjRkT-26" value="出力" style="rounded=1;whiteSpace=wrap;html=1;" parent="1" vertex="1">
          <mxGeometry x="295" y="700" width="120" height="60" as="geometry" />
        </mxCell>
        <mxCell id="Y6hbfu5QWSVkYy7LjRkT-30" value="LLM" style="text;html=1;strokeColor=none;fillColor=none;align=center;verticalAlign=middle;whiteSpace=wrap;rounded=0;" parent="1" vertex="1">
          <mxGeometry x="220" y="340" width="60" height="30" as="geometry" />
        </mxCell>
        <mxCell id="-D9WMQLK6_W9tWc12pCn-31" style="edgeStyle=orthogonalEdgeStyle;rounded=0;orthogonalLoop=1;jettySize=auto;html=1;entryX=0.25;entryY=0;entryDx=0;entryDy=0;" edge="1" parent="1" source="-D9WMQLK6_W9tWc12pCn-1" target="Y6hbfu5QWSVkYy7LjRkT-26">
          <mxGeometry relative="1" as="geometry">
            <Array as="points">
              <mxPoint x="220" y="650" />
              <mxPoint x="325" y="650" />
            </Array>
          </mxGeometry>
        </mxCell>
        <mxCell id="-D9WMQLK6_W9tWc12pCn-1" value="文章生成" style="rounded=1;whiteSpace=wrap;html=1;" vertex="1" parent="1">
          <mxGeometry x="160" y="540" width="120" height="60" as="geometry" />
        </mxCell>
        <mxCell id="-D9WMQLK6_W9tWc12pCn-32" style="edgeStyle=orthogonalEdgeStyle;rounded=0;orthogonalLoop=1;jettySize=auto;html=1;entryX=0.5;entryY=0;entryDx=0;entryDy=0;" edge="1" parent="1" source="-D9WMQLK6_W9tWc12pCn-2" target="Y6hbfu5QWSVkYy7LjRkT-26">
          <mxGeometry relative="1" as="geometry" />
        </mxCell>
        <mxCell id="-D9WMQLK6_W9tWc12pCn-2" value="表情生成" style="rounded=1;whiteSpace=wrap;html=1;" vertex="1" parent="1">
          <mxGeometry x="295" y="540" width="120" height="60" as="geometry" />
        </mxCell>
        <mxCell id="-D9WMQLK6_W9tWc12pCn-33" style="edgeStyle=orthogonalEdgeStyle;rounded=0;orthogonalLoop=1;jettySize=auto;html=1;entryX=0.75;entryY=0;entryDx=0;entryDy=0;" edge="1" parent="1" source="-D9WMQLK6_W9tWc12pCn-22" target="Y6hbfu5QWSVkYy7LjRkT-26">
          <mxGeometry relative="1" as="geometry">
            <Array as="points">
              <mxPoint x="490" y="650" />
              <mxPoint x="385" y="650" />
            </Array>
          </mxGeometry>
        </mxCell>
        <mxCell id="-D9WMQLK6_W9tWc12pCn-22" value="運動生成" style="rounded=1;whiteSpace=wrap;html=1;" vertex="1" parent="1">
          <mxGeometry x="430" y="540" width="120" height="60" as="geometry" />
        </mxCell>
      </root>
    </mxGraphModel>
  </diagram>
  <diagram id="Q1SJKkhCWVDEaE62FwiI" name="表情生成">
    <mxGraphModel dx="1434" dy="772" grid="1" gridSize="10" guides="1" tooltips="1" connect="1" arrows="1" fold="1" page="1" pageScale="1" pageWidth="827" pageHeight="1169" math="0" shadow="0">
      <root>
        <mxCell id="0" />
        <mxCell id="1" parent="0" />
      </root>
    </mxGraphModel>
  </diagram>
  <diagram id="SBAspBjqrFeK0ZGvOGAk" name="運動生成">
    <mxGraphModel dx="1434" dy="772" grid="1" gridSize="10" guides="1" tooltips="1" connect="1" arrows="1" fold="1" page="1" pageScale="1" pageWidth="827" pageHeight="1169" math="0" shadow="0">
      <root>
        <mxCell id="0" />
        <mxCell id="1" parent="0" />
      </root>
    </mxGraphModel>
  </diagram>
  <diagram id="-prahKh9N9Kdmq05S5CR" name="内部欲求">
    <mxGraphModel dx="1434" dy="772" grid="1" gridSize="10" guides="1" tooltips="1" connect="1" arrows="1" fold="1" page="1" pageScale="1" pageWidth="827" pageHeight="1169" math="0" shadow="0">
      <root>
        <mxCell id="0" />
        <mxCell id="1" parent="0" />
        <mxCell id="Mq-BtNWnydqKC1GxR5QY-4" style="edgeStyle=orthogonalEdgeStyle;rounded=0;orthogonalLoop=1;jettySize=auto;html=1;" edge="1" parent="1" source="Mq-BtNWnydqKC1GxR5QY-1" target="Mq-BtNWnydqKC1GxR5QY-3">
          <mxGeometry relative="1" as="geometry" />
        </mxCell>
        <mxCell id="Mq-BtNWnydqKC1GxR5QY-1" value="入力" style="rounded=1;whiteSpace=wrap;html=1;" vertex="1" parent="1">
          <mxGeometry x="340" y="200" width="120" height="60" as="geometry" />
        </mxCell>
        <mxCell id="Mq-BtNWnydqKC1GxR5QY-3" value="感情評価" style="rounded=1;whiteSpace=wrap;html=1;" vertex="1" parent="1">
          <mxGeometry x="340" y="300" width="120" height="60" as="geometry" />
        </mxCell>
        <mxCell id="Mq-BtNWnydqKC1GxR5QY-5" value="欲求" style="rounded=1;whiteSpace=wrap;html=1;" vertex="1" parent="1">
          <mxGeometry x="100" y="460" width="120" height="60" as="geometry" />
        </mxCell>
      </root>
    </mxGraphModel>
  </diagram>
</mxfile>
